# xmcd
#
# Track frame offsets:
#	150
#	13000
#	29357
#	48122
#	59992
#	74031
#	90999
#	105532
#	120210
#	145044
#	158176
#	178484
#	190711
#	209781
#	224844
#	236836
#	250204
#	266192
#	284341
#	299246
#	317773
#	332781
#	348055
#
# Disc length: 4793 seconds
#
# Revision: 0
# Processed by: cddbd v1.5.2PL0 Copyright (c) Steve Scherf et al.
# Submitted via: EasyCDDAExtractor 2010.4.0.0
#
DISCID=7912b717
DTITLE=Various Artist - Country Hits, Vol. 32
DYEAR=2010
DGENRE=Country
TTITLE0=Sammy Kershaw - A Memory That Just Won T Quit
TTITLE1=Sawyer Brown - (This Thing Called) Wantin' And Havin' It All
TTITLE2=Slim Dusty - My Heaven On Earth
TTITLE3=Steve Lee - I Like Guns
TTITLE4=Tracy Lawrence - If The World Had A Front Porch
TTITLE5=Sammy Kershaw - Meant To Be
TTITLE6=Sawyer Brown - Some Girls Do
TTITLE7=Slim Dusty - Never Was At All
TTITLE8=Taneytown - Songs for the broken hearted
TTITLE9=Sawyer Brown - The Dirt Road
TTITLE10=Tracy Lawrence - Strong
TTITLE11=Sonny Burgess - I Can't Think Of One
TTITLE12=Trisha Yearwood - I Don't Fall In Love So Easy
TTITLE13=Sawyer Brown - Time And Love
TTITLE14=Steve Lee - Pistol In My Hand
TTITLE15=Sugarland - Tennessee
TTITLE16=Terri Clark - You're Easy On The Eyes
TTITLE17=Sawyer Brown - She's Gettin' There
TTITLE18=Slim Dusty - Mechanised Swaggies
TTITLE19=Taneytown - Blame it on Jack
TTITLE20=Sammy Kershaw - These Flowers
TTITLE21=Sean Patrick Mcgraw - Nuthin' Like A Saturday Night
TTITLE22=Slim Dusty - Good Heavens Above
EXTD=
EXTT0=
EXTT1=
EXTT2=
EXTT3=
EXTT4=
EXTT5=
EXTT6=
EXTT7=
EXTT8=
EXTT9=
EXTT10=
EXTT11=
EXTT12=
EXTT13=
EXTT14=
EXTT15=
EXTT16=
EXTT17=
EXTT18=
EXTT19=
EXTT20=
EXTT21=
EXTT22=
PLAYORDER=
